<?xml version="1.0" standalone="no"?>
<!DOCTYPE svg PUBLIC "-//W3C//DTD SVG 20010904//EN"
 "http://www.w3.org/TR/2001/REC-SVG-20010904/DTD/svg10.dtd">
<svg fill='red' version="1.0" xmlns="http://www.w3.org/2000/svg"
 width="472.000000pt" height="636.000000pt" viewBox="0 0 472.000000 636.000000"
 preserveAspectRatio="xMidYMid meet">

<g  transform="translate(0.000000,636.000000) scale(0.100000,-0.100000)"
fill="#000000" stroke="none">
<path d="M0 3180 l0 -3180 2360 0 2360 0 0 3180 0 3180 -2360 0 -2360 0 0
-3180z m658 -2186 c18 -18 31 -38 28 -43 -3 -5 1 -12 10 -15 8 -3 13 -10 10
-15 -4 -5 5 -23 19 -39 14 -16 25 -37 25 -45 0 -8 7 -20 15 -27 8 -7 15 -19
15 -26 0 -8 5 -14 12 -14 6 0 8 -3 5 -7 -4 -3 1 -12 11 -20 10 -9 11 -11 2 -7
-8 5 -2 -9 13 -29 15 -20 24 -37 20 -37 -4 0 0 -5 9 -11 10 -5 15 -16 11 -25
-3 -8 -2 -14 3 -12 5 2 10 0 11 -5 4 -16 38 -73 56 -93 10 -12 19 -28 21 -35
1 -8 7 -24 14 -36 13 -23 11 -57 -3 -70 -4 -5 -5 -2 0 6 6 10 4 12 -4 7 -7 -5
-10 -14 -7 -21 2 -7 -2 -16 -10 -19 -9 -3 -13 -10 -10 -15 4 -5 -12 -31 -35
-58 -23 -26 -49 -58 -59 -69 -14 -17 -15 -25 -7 -35 10 -11 9 -11 -5 0 -9 7
-14 19 -11 27 4 10 0 13 -13 8 -15 -5 -16 -4 -5 4 12 8 12 14 3 25 -7 7 -9 17
-5 20 3 4 0 13 -6 21 -7 8 -9 21 -5 28 5 10 4 10 -5 2 -10 -9 -10 -17 -2 -33
9 -16 9 -21 0 -21 -8 0 -7 -5 2 -18 13 -15 12 -16 -3 -3 -10 7 -16 17 -13 21
3 4 -2 13 -11 20 -12 11 -12 15 -2 21 10 7 10 11 -1 21 -10 9 -12 10 -7 1 5
-9 2 -11 -8 -7 -9 3 -13 10 -10 15 3 5 2 9 -3 9 -4 0 -13 11 -20 25 -7 16 -7
23 -1 18 7 -3 8 -1 4 5 -4 7 -14 12 -22 12 -8 0 -14 7 -14 16 0 8 -4 13 -9 10
-4 -3 -8 4 -7 17 1 13 -5 22 -14 22 -8 0 -14 8 -12 17 1 9 -3 20 -9 24 -8 5
-9 3 -4 -6 5 -9 4 -11 -4 -6 -6 4 -9 11 -6 16 3 5 1 11 -5 15 -6 4 -8 11 -5
16 4 5 0 12 -9 15 -8 3 -12 12 -9 20 3 9 -1 14 -11 14 -9 0 -16 6 -15 13 3 18
-12 48 -21 42 -4 -3 -11 2 -14 11 -4 10 -2 13 7 9 6 -4 5 -1 -4 7 -9 7 -14 19
-12 26 3 6 -2 12 -10 12 -8 0 -18 7 -21 16 -4 10 -2 13 7 9 6 -4 4 0 -5 8 -10
8 -15 17 -11 20 3 4 1 7 -6 7 -7 0 -10 4 -6 10 3 5 -5 20 -17 32 -13 13 -23
28 -23 33 0 6 -11 21 -23 33 -13 13 -21 30 -18 38 3 8 2 13 -2 10 -5 -3 -16 9
-26 27 -13 24 -13 27 -2 13 9 -11 16 -15 16 -8 0 6 -9 17 -19 24 -46 32 5 44
194 45 88 1 90 0 123 -33z m625 31 c29 -6 35 -11 33 -29 -3 -26 -34 -76 -48
-76 -5 0 -8 -8 -6 -17 2 -10 -2 -17 -9 -16 -7 2 -10 -4 -7 -12 3 -8 -6 -26
-23 -41 -15 -15 -22 -24 -15 -20 19 11 14 -1 -10 -25 -13 -12 -16 -19 -8 -15
12 6 11 4 -1 -6 -16 -13 -19 -19 -19 -38 0 -5 -9 -10 -20 -10 -11 0 -20 6 -20
14 0 8 -6 16 -14 19 -7 3 -28 32 -46 64 -18 32 -48 86 -66 120 -19 33 -32 68
-29 76 5 11 33 14 140 16 73 1 149 -1 168 -4z m779 -1 c30 -5 36 -10 33 -26
-3 -11 -12 -27 -22 -35 -11 -8 -12 -12 -3 -7 9 4 7 -2 -5 -14 -17 -16 -36 -21
-112 -24 -82 -4 -91 -2 -80 11 10 14 10 14 -4 3 -15 -11 -17 -47 -15 -325 1
-298 2 -312 20 -309 10 2 16 0 13 -5 -3 -5 49 -8 116 -8 102 0 122 -2 122 -15
0 -8 -6 -21 -15 -28 -11 -10 -12 -12 -1 -6 8 4 4 -8 -10 -27 -13 -19 -24 -37
-24 -41 0 -3 -4 -10 -9 -15 -5 -5 -6 -2 -1 6 5 9 4 12 -3 7 -7 -4 -12 -14 -12
-23 0 -10 -6 -13 -16 -9 -9 3 -148 6 -310 6 l-295 0 4 26 c2 14 10 30 18 35 8
5 10 9 5 9 -6 0 -1 7 10 16 10 8 13 12 6 9 -11 -6 -12 -3 -3 13 18 34 40 40
121 35 57 -4 79 -2 85 7 5 7 4 11 -1 7 -5 -3 -9 123 -9 306 l0 312 -99 3
c-129 4 -149 25 -88 95 14 15 40 17 281 17 146 0 283 -3 303 -6z m814 -5 c3
-5 2 -15 -3 -21 -4 -7 -8 -20 -10 -28 -1 -7 -12 -23 -25 -33 -13 -10 -18 -16
-11 -13 7 4 6 -4 -3 -24 -9 -16 -20 -30 -25 -30 -5 0 -8 -3 -7 -7 2 -11 -20
-63 -27 -63 -4 0 -3 5 1 12 4 7 3 8 -4 4 -6 -4 -9 -13 -6 -20 3 -7 -11 -34
-31 -61 -20 -26 -31 -44 -23 -40 8 4 7 1 -2 -7 -8 -7 -16 -20 -18 -28 -2 -8
-13 -23 -25 -33 -12 -10 -16 -16 -9 -12 19 10 14 -2 -10 -26 -13 -12 -16 -19
-8 -15 13 7 13 6 0 -6 -8 -7 -15 -20 -15 -28 0 -8 -5 -14 -12 -13 -7 2 -10 -3
-7 -10 3 -8 -8 -26 -23 -42 -15 -16 -23 -25 -16 -21 18 10 -11 -42 -33 -60
-11 -9 -12 -13 -4 -9 8 4 6 -1 -4 -9 -11 -9 -16 -16 -10 -16 5 0 3 -4 -5 -9
-8 -5 -15 -21 -15 -34 -1 -14 2 -23 6 -21 4 3 8 1 8 -3 0 -5 75 -7 168 -5 167
3 217 -5 182 -28 -8 -5 -11 -10 -6 -10 6 0 1 -7 -10 -16 -10 -8 -13 -13 -6 -9
19 10 14 -2 -10 -26 -13 -12 -16 -19 -8 -15 9 5 9 2 -2 -7 -10 -8 -14 -18 -10
-22 4 -5 2 -5 -5 -1 -6 3 -14 2 -18 -4 -4 -6 -108 -10 -290 -10 -239 0 -284 2
-288 15 -4 8 -2 17 3 20 6 4 10 15 10 25 0 10 5 22 12 26 7 5 8 2 3 -7 -5 -8
-4 -11 1 -6 4 4 9 18 9 30 0 13 6 21 13 19 8 -1 11 2 7 8 -8 13 14 52 25 45 6
-4 7 1 3 11 -4 11 -3 15 5 10 6 -3 14 -1 18 5 4 8 3 9 -4 5 -17 -10 -15 7 4
30 8 10 12 13 8 5 -4 -9 -3 -12 4 -7 6 4 8 14 5 23 -5 12 -3 14 7 8 9 -5 11
-4 6 3 -6 11 39 102 51 102 2 0 1 -5 -3 -12 -4 -7 -3 -8 5 -4 6 4 9 11 6 16
-6 10 61 139 90 175 9 11 13 14 9 6 -4 -9 -3 -12 4 -7 6 4 9 13 6 20 -5 12 51
116 62 116 3 0 2 -5 -2 -12 -4 -7 -3 -8 5 -4 6 4 8 12 5 18 -8 12 16 59 26 53
4 -2 7 6 6 18 -1 22 -3 22 -176 25 -178 3 -203 8 -177 41 9 12 9 13 0 7 -9 -5
-11 -2 -7 8 3 9 11 13 17 9 6 -3 7 -1 3 6 -4 6 -2 19 5 27 10 12 56 15 305 14
166 -1 296 -6 300 -11z m770 -2 c5 -4 4 -11 -1 -15 -6 -4 -12 -16 -13 -27 -8
-44 -31 -55 -112 -55 -45 0 -83 -5 -93 -12 -15 -12 -17 -48 -17 -376 -1 -200
-3 -369 -7 -377 -4 -11 -23 -15 -73 -15 l-68 0 -10 33 c-6 17 -13 189 -17 382
-4 254 -9 352 -18 357 -7 4 -61 8 -120 8 -123 0 -148 11 -126 52 32 62 13 59
355 56 172 -2 316 -7 320 -11z m476 -25 c15 -14 25 -28 23 -32 -3 -4 5 -19 16
-34 11 -14 17 -26 12 -26 -4 0 0 -5 10 -11 9 -6 15 -14 12 -19 -3 -4 2 -11 11
-14 8 -3 13 -10 10 -15 -4 -5 5 -23 19 -39 14 -16 25 -36 25 -44 0 -8 5 -19
12 -26 6 -6 8 -15 5 -19 -4 -4 -85 -9 -181 -11 -144 -4 -177 -2 -202 11 -16 9
-24 16 -17 17 7 0 10 6 7 14 -3 8 4 24 15 35 12 12 19 21 16 21 -3 0 4 18 15
40 12 23 25 38 30 35 6 -4 7 1 3 11 -4 11 -2 15 4 11 6 -4 10 1 9 11 0 9 5 16
12 14 8 -1 11 2 7 8 -8 14 26 70 38 63 6 -4 7 -1 2 7 -10 16 14 31 40 24 11
-4 32 -18 47 -32z m68 -588 c9 -9 2 -13 -25 -18 -19 -4 -33 -11 -30 -17 4 -5
-1 -9 -9 -9 -9 0 -16 -3 -16 -7 0 -5 -31 -24 -68 -43 -37 -19 -69 -38 -72 -42
-3 -4 -26 -16 -50 -28 -25 -11 -56 -27 -70 -35 -14 -8 -36 -15 -50 -15 -19 0
-22 -2 -10 -10 13 -8 13 -9 0 -14 -34 -10 -177 -27 -204 -23 -27 3 -51 27 -28
27 11 0 28 38 24 53 -1 4 3 7 8 7 6 0 10 8 10 18 0 10 7 27 16 38 8 10 12 13
8 5 -5 -10 -3 -12 5 -7 7 5 10 14 7 21 -2 7 2 16 10 19 9 3 12 10 9 16 -3 5
-1 10 5 10 6 0 9 4 5 10 -3 5 3 18 14 29 11 11 17 22 13 25 -3 4 105 5 241 4
165 -2 250 -7 257 -14z"/>
<path  d="M820 230 c0 -5 5 -10 10 -10 6 0 10 5 10 10 0 6 -4 10 -10 10 -5 0
-10 -4 -10 -10z"/>
<path   d="M1070 844 c0 -5 7 -18 15 -28 8 -11 15 -16 15 -10 0 5 -7 18 -15 28
-8 11 -15 16 -15 10z"/>
<path   d="M1640 936 c0 -2 9 -6 20 -9 11 -3 18 -1 14 4 -5 9 -34 13 -34 5z"/>
<path   d="M1684 610 c0 -168 2 -236 3 -152 2 83 2 221 0 305 -1 83 -3 15 -3
-153z"/>
<path   d="M2621 914 c0 -11 3 -14 6 -6 3 7 2 16 -1 19 -3 4 -6 -2 -5 -13z"/>
<path   d="M2432 580 c-18 -29 -15 -38 4 -12 9 13 14 25 12 27 -2 2 -9 -5 -16
-15z"/>
<path   d="M3210 933 c8 -3 22 -11 30 -17 13 -10 13 -9 1 7 -7 9 -21 17 -30 16
-13 0 -14 -1 -1 -6z"/>
<path fill = 'red' d="M3738 173 c7 -3 16 -2 19 1 4 3 -2 6 -13 5 -11 0 -14 -3 -6 -6z"/>
</g>
</svg>
